<?xml version="1.0" encoding="utf-8"?>
<!-- Generator: Adobe Illustrator 21.1.0, SVG Export Plug-In . SVG Version: 6.00 Build 0)  -->
<svg version="1.1" id="_x30_" xmlns="http://www.w3.org/2000/svg" xmlns:xlink="http://www.w3.org/1999/xlink" x="0px" y="0px"
	 viewBox="0 0 292 292" style="enable-background:new 0 0 292 292;" xml:space="preserve">
<style type="text/css">
	.st0{fill:#FFFFFF;}
	.st1{opacity:0.4;}
	.st2{fill:none;stroke:#999999;stroke-width:5.2;stroke-linecap:round;stroke-linejoin:round;enable-background:new    ;}
	.st3{fill:#4C4C4C;}
</style>
<g id="_x37_">
	<circle class="st0" cx="146" cy="146" r="138.1"/>
	<g class="st1">
		<path d="M146,7.9c76.3,0,138.1,61.8,138.1,138.1S222.3,284.1,146,284.1S7.9,222.3,7.9,146S69.7,7.9,146,7.9 M146,1.9
			c-38.5,0-74.7,15-101.9,42.2C16.9,71.3,1.9,107.5,1.9,146s15,74.7,42.2,101.9c27.2,27.2,63.4,42.2,101.9,42.2s74.7-15,101.9-42.2
			c27.2-27.2,42.2-63.4,42.2-101.9s-15-74.7-42.2-101.9C220.7,16.9,184.5,1.9,146,1.9L146,1.9z"/>
	</g>
</g>
<path id="_6_1_" class="st2" d="M208.5,38.3l-3.4,5.9L208.5,38.3z M254.1,83.9l-5.9,3.4L254.1,83.9z M254.1,208.5l-6-3.5
	L254.1,208.5z M208.5,254.1l-3.5-6L208.5,254.1z M83.9,254.1l3.5-6L83.9,254.1z M38.3,208.5l6-3.5L38.3,208.5z M38.3,83.9l5.9,3.4
	L38.3,83.9z M83.9,38.3l3.4,5.9L83.9,38.3z"/>
<path id="_5" class="st3" d="M132.8,23c0.8,0,1.7-0.1,2.5-0.3c0.6-0.2,1.1-0.5,1.6-0.9c0.4-0.4,0.7-0.8,1-1.3
	c0.3-0.5,0.5-1.1,0.7-1.6h3.5v32.7H137v-25h-4L132.8,23z"/>
<path id="_4" class="st3" d="M158.3,26.9c0.1-1.1-0.1-2.1-0.7-3c-0.5-0.5-1.2-0.8-1.9-0.8c-0.7,0-1.4,0.2-1.9,0.7
	c-0.5,0.7-0.8,1.6-0.7,2.5v3.5h-4.9v-3.1c-0.2-2.2,0.5-4.4,1.9-6.1c3.3-2.9,8.2-2.9,11.5,0c1.4,1.7,2.1,3.9,1.9,6.1
	c0,1.6-0.2,3.2-0.7,4.7c-0.5,1.3-1.1,2.6-1.9,3.8c-0.7,1.1-1.6,2.2-2.5,3.2l-2.5,2.8c-0.7,0.8-1.3,1.7-1.9,2.6
	c-0.5,0.8-0.7,1.7-0.7,2.6c0,0.2,0,0.5,0,0.7h9.7v4.7h-14.9v-4c0-1.4,0.2-2.9,0.7-4.2c0.5-1.2,1.1-2.3,1.9-3.3c0.8-1,1.6-2,2.5-2.9
	c0.9-0.9,1.7-1.8,2.5-2.8c0.8-1,1.4-2.1,1.9-3.3C158.1,29.9,158.4,28.4,158.3,26.9z"/>
<path id="_3" class="st3" d="M267,137.5c0.1-1.1-0.1-2.1-0.7-3c-0.5-0.5-1.2-0.8-1.9-0.8c-0.7,0-1.4,0.2-1.9,0.7
	c-0.5,0.7-0.8,1.6-0.7,2.5v2.1h-4.9v-1.8c-0.2-2.2,0.5-4.4,1.9-6.1c3.3-2.9,8.2-2.9,11.5,0c1.4,1.7,2.1,3.9,1.9,6.1v0.8
	c0,3.5-1.2,5.7-3.6,6.7c1.2,0.5,2.2,1.4,2.8,2.6c0.6,1.4,0.9,2.8,0.8,4.3v2.6c0.2,2.2-0.5,4.4-1.9,6.1c-3.3,2.9-8.2,2.9-11.5,0
	c-1.4-1.7-2.1-3.9-1.9-6.1v-2.7h4.9v3c-0.1,0.9,0.2,1.8,0.7,2.5c0.5,0.5,1.2,0.7,1.9,0.7c0.7,0,1.4-0.2,1.9-0.7
	c0.6-0.9,0.8-1.9,0.7-2.9v-2.6c0.1-1.1-0.2-2.3-0.8-3.2c-0.7-0.7-1.6-1-2.6-0.9h-1.7v-4.7h2c0.8,0.1,1.7-0.2,2.3-0.7
	c0.6-0.8,0.9-1.7,0.8-2.7L267,137.5z"/>
<path id="_2" class="st3" d="M37.3,154.1c0,2.8-0.6,4.9-1.9,6.3c-1.3,1.4-3.2,2.1-5.9,2.2c-2.1,0.1-4.2-0.6-5.7-2.1
	c-1.4-1.7-2.1-3.9-1.9-6.1v-0.9h4.9v1.2c-0.1,0.9,0.2,1.8,0.7,2.5c0.5,0.5,1.2,0.7,1.9,0.7c0.8,0.1,1.5-0.2,2.1-0.8
	c0.6-1,0.8-2.1,0.7-3.2v-6c-0.8,1.9-2.7,3.1-4.8,2.9c-1.7,0.1-3.3-0.6-4.3-1.9c-1.1-1.7-1.5-3.6-1.4-5.6v-6c-0.1-2.2,0.6-4.4,2-6.1
	c1.5-1.5,3.7-2.3,5.8-2.1c2.1-0.2,4.3,0.6,5.8,2.1c1.4,1.7,2.1,3.9,2,6.1L37.3,154.1z M29.5,146.1c0.7,0,1.4-0.2,1.9-0.7
	c0.5-0.7,0.8-1.6,0.7-2.5V137c0.1-0.9-0.1-1.8-0.6-2.5c-1.1-1-2.8-1-3.9,0c-0.6,0.7-0.8,1.6-0.7,2.5v5.9c-0.1,0.9,0.2,1.8,0.7,2.5
	C28.1,145.9,28.8,146.1,29.5,146.1z"/>
<path id="_1" class="st3" d="M138.5,247c0-2.8,0.6-4.9,1.9-6.3c1.3-1.4,3.2-2.1,5.9-2.2c2.1-0.1,4.2,0.6,5.7,2.1
	c1.4,1.7,2.1,3.9,1.9,6.1v0.8H149v-1.2c0.1-0.9-0.2-1.8-0.7-2.5c-0.5-0.5-1.2-0.7-1.9-0.7c-0.8-0.1-1.5,0.2-2.1,0.8
	c-0.6,1-0.8,2.1-0.7,3.2v6c0.8-1.9,2.7-3.1,4.8-2.9c1.7-0.1,3.3,0.6,4.3,1.9c1.1,1.7,1.5,3.6,1.4,5.6v6c0.1,2.2-0.6,4.4-2,6.1
	c-3.4,2.8-8.2,2.8-11.6,0c-1.4-1.7-2.1-3.9-2-6.1L138.5,247z M146.3,255c-0.7,0-1.4,0.2-1.9,0.7c-0.5,0.7-0.8,1.6-0.7,2.5v5.9
	c-0.1,0.9,0.1,1.8,0.7,2.5c1.1,1,2.8,1,3.9,0c0.6-0.7,0.8-1.6,0.7-2.5v-5.9c0.1-0.9-0.2-1.8-0.7-2.5c-0.5-0.5-1.2-0.8-2-0.8V255z"/>
</svg>
