<?xml version="1.0" encoding="utf-8"?>
<!-- Generator: Adobe Illustrator 21.1.0, SVG Export Plug-In . SVG Version: 6.00 Build 0)  -->
<svg version="1.1" id="_x31_" xmlns="http://www.w3.org/2000/svg" xmlns:xlink="http://www.w3.org/1999/xlink" x="0px" y="0px"
	 viewBox="0 0 292 292" style="enable-background:new 0 0 292 292;" xml:space="preserve">
<style type="text/css">
	.st0{opacity:0.4;fill:#FFFFFF;}
	.st1{fill:none;stroke:#808080;stroke-width:5.2;stroke-linecap:round;stroke-linejoin:round;}
	.st2{fill:none;stroke:#B3B3B3;stroke-width:5.2;stroke-linecap:round;}
	.st3{fill:none;stroke:#ECB439;stroke-width:5.2;stroke-linecap:round;}
</style>
<path id="_x35_" class="st0" d="M146,291C66,291,1,226,1,146S66,1,146,1s145,65,145,145S226,291,146,291z"/>
<path id="_x36_" d="M146,285C69.4,285,7,222.6,7,146S69.4,7,146,7s139,62.4,139,139S222.6,285,146,285z"/>
<path id="_x34__1_" class="st1" d="M208.3,38.1l-3.4,5.9L208.3,38.1z M253.9,83.7l-5.9,3.4L253.9,83.7z M253.9,208.3l-6-3.5
	L253.9,208.3z M208.3,253.9l-3.5-6L208.3,253.9z M83.7,253.9l3.5-6L83.7,253.9z M38.1,208.3l6-3.5L38.1,208.3z M38.1,83.7l5.9,3.4
	L38.1,83.7z M83.7,38.1l3.4,5.9L83.7,38.1z"/>
<path id="_x33__1_" class="st2" d="M257.4,146h14.4 M146,271.9v-14.6 M20.1,146h14.5"/>
<line id="_x32__1_" class="st3" x1="146" y1="20.1" x2="146" y2="34.6"/>
</svg>
