<?xml version="1.0" encoding="utf-8"?>
<!-- Generator: Adobe Illustrator 26.1.0, SVG Export Plug-In . SVG Version: 6.00 Build 0)  -->
<svg version="1.1" xmlns="http://www.w3.org/2000/svg" xmlns:xlink="http://www.w3.org/1999/xlink" x="0px" y="0px"
	 viewBox="0 0 150 128" style="enable-background:new 0 0 150 128;" xml:space="preserve">
<style type="text/css">
	.st0{fill:none;stroke:#316474;stroke-width:1.7;stroke-linecap:round;}
	
		.st1{fill-rule:evenodd;clip-rule:evenodd;fill:#73F793;stroke:#316474;stroke-width:1.992;stroke-linecap:round;stroke-linejoin:round;}
	.st2{fill:#FFFFFF;stroke:#316474;stroke-width:1.7;}
	.st3{fill:none;stroke:#316474;stroke-width:1.992;stroke-linecap:round;stroke-linejoin:round;}
	
		.st4{fill-rule:evenodd;clip-rule:evenodd;fill:none;stroke:#316474;stroke-width:1.992;stroke-linecap:round;stroke-linejoin:round;}
	.st5{fill:#FFFFFF;stroke:#316474;stroke-width:1.992;}
	.st6{fill:#EDE9E3;stroke:#316474;stroke-width:1.992;}
	.st7{fill:#FFFFFF;stroke:#316474;stroke-width:1.992;stroke-linejoin:round;}
	.st8{fill:none;}
	.st9{fill:#FFFFFF;stroke:#316474;stroke-width:1.7;stroke-linecap:round;stroke-linejoin:round;}
	.st10{fill:none;stroke:#316474;stroke-width:1.7;stroke-linecap:round;stroke-linejoin:round;}
	
		.st11{fill-rule:evenodd;clip-rule:evenodd;fill:none;stroke:#316474;stroke-width:1.7;stroke-linecap:round;stroke-linejoin:round;}
	.st12{fill:#C3E3DD;stroke:#316474;stroke-width:1.7;}
	.st13{fill-rule:evenodd;clip-rule:evenodd;fill:#C3E3DD;}
	.st14{fill:#316474;}
	
		.st15{fill-rule:evenodd;clip-rule:evenodd;fill:#73F793;stroke:#316474;stroke-width:1.7;stroke-linecap:round;stroke-linejoin:round;}
	
		.st16{fill-rule:evenodd;clip-rule:evenodd;fill:#FFFFFF;stroke:#316474;stroke-width:1.7;stroke-linecap:round;stroke-linejoin:round;}
	.st17{fill:#40BE9F;}
	.st18{fill:none;stroke:#316474;stroke-width:1.7;}
</style>
<g id="Layer_3">
	<g>
		<path class="st0" d="M30.4,25.9l9.4,4.4"/>
		<path class="st0" d="M37.5,23.7l-4,9.6"/>
	</g>
	<g>
		<path class="st1" d="M34.3,75.8c0,0-8,15-7.8,16.4c0.2,1.3,11.6-1.3,12.7-1.6c1.1-0.3,2.5,10.8,4.3,13.2c1.8,2.4,4.1,2.3,8.6,1.5
			c4.5-0.8,65.8-17.4,65.8-17.4s8.1-0.6,6.6-8.1c-1.5-7.4-9.6-50-10-51.4c-0.4-1.4-0.7-7.2-11-5.8c-10.3,1.4-67.1,16.3-67.1,16.3
			s-7.1,2.3-6.9,8C29.8,52.7,34.3,75.8,34.3,75.8z"/>
		<g>
			<path class="st2" d="M57.9,55.1c1.4-0.4,2.8,0.4,3.2,1.7l5.5,20.8c0.3,1.2-0.6,2.7-1.9,3c-1.4,0.4-2.8-0.4-3.2-1.7L56,58.1
				C55.7,56.8,56.6,55.4,57.9,55.1z"/>
			<path class="st2" d="M68.1,52.4c-1.4,0.4-2.3,1.8-1.9,3l5.5,20.8c0.3,1.2,1.8,2,3.2,1.7c1.4-0.4,2.3-1.8,1.9-3L71.3,54
				C71,52.8,69.5,52,68.1,52.4z"/>
			<path class="st2" d="M75.6,39.5c-1.4,0.4-2.3,1.8-1.9,3l10.9,41.1c0.3,1.2,1.8,2,3.2,1.7c1.4-0.4,2.3-1.8,1.9-3L78.8,41.1
				C78.4,39.9,76.9,39.1,75.6,39.5z"/>
			<path class="st2" d="M88.5,46.9c-1.4,0.4-2.3,1.8-1.9,3l5.5,20.8c0.3,1.2,1.8,2,3.2,1.7c1.4-0.4,2.3-1.8,1.9-3l-5.5-20.8
				C91.3,47.4,89.8,46.6,88.5,46.9z"/>
			<path class="st2" d="M49.1,62.9c1.4-0.4,2.8,0.4,3.2,1.7l2.8,10.6c0.3,1.2-0.6,2.7-1.9,3c-1.4,0.4-2.8-0.4-3.2-1.7l-2.8-10.6
				C46.9,64.6,47.8,63.2,49.1,62.9z"/>
			<path class="st2" d="M100,49.3c-1.4,0.4-2.3,1.8-1.9,3l2.8,10.6c0.3,1.2,1.8,2,3.2,1.7c1.4-0.4,2.3-1.8,1.9-3L103.2,51
				C102.8,49.7,101.4,49,100,49.3z"/>
		</g>
	</g>
	<path class="st3" d="M127,30.3c0,1.3-1.1,2.4-2.4,2.4c-1.3,0-2.4-1.1-2.4-2.4c0-1.3,1.1-2.4,2.4-2.4C125.9,27.9,127,29,127,30.3z"
		/>
	<path class="st3" d="M97.1,102.6c0,1.3-1.2,2.3-2.5,2.3c-1.3,0-2.3-1.2-2.3-2.5s1.2-2.3,2.5-2.3C96.1,100.2,97.1,101.3,97.1,102.6z
		"/>
	<path class="st4" d="M23.3,61.6c-0.1,2-1.7,3.5-3.7,3.5c-2-0.1-3.5-1.7-3.5-3.7c0.1-2,1.7-3.5,3.7-3.5C21.8,58,23.4,59.6,23.3,61.6
		z"/>
	<g>
		<path class="st5" d="M115.8,78.2c0.7-3.6,4.1-6.1,7.8-5.4l13.2,2.4c3.6,0.7,6.1,4.1,5.4,7.8l-2.5,14c-0.7,3.6-4.1,6.1-7.8,5.4
			l-13.2-2.4c-3.6-0.7-6.1-4.1-5.4-7.8L115.8,78.2z"/>
		<path class="st3" d="M129,95.2c-0.2,1-1.3,1.7-2.3,1.5c-1-0.2-1.7-1.3-1.5-2.3c0.2-1,1.3-1.7,2.3-1.5
			C128.6,93.2,129.2,94.2,129,95.2z"/>
		<path class="st6" d="M116,77c0.5-3,3.4-5,6.4-4.5l15.4,2.8c3,0.5,5,3.4,4.5,6.4c-0.5,3-3.4,5-6.4,4.5l-15.4-2.8
			C117.5,82.9,115.5,80.1,116,77z"/>
		<path class="st7" d="M121.8,67.8c0.9-5.1,5.8-8.5,10.9-7.6c5.1,0.9,8.5,5.8,7.6,10.9l-1.8,9.9c0,0-0.9,1.2-2.9,0.9
			c-2-0.4-2.4-1.8-2.4-1.8l1.7-9.7c0.4-2.2-1.1-4.3-3.2-4.7c-2.2-0.4-4.3,1.1-4.7,3.2l-1.7,9.7c0,0-0.9,1.2-2.9,0.9
			c-2-0.4-2.4-1.8-2.4-1.8L121.8,67.8z"/>
	</g>
	<rect id="Bounds" class="st8" width="150" height="128"/>
</g>
<g id="rbs_x5F_1">
</g>
</svg>
