<?xml version="1.0" encoding="utf-8"?>
<!-- Generator: Adobe Illustrator 26.1.0, SVG Export Plug-In . SVG Version: 6.00 Build 0)  -->
<svg version="1.1" xmlns="http://www.w3.org/2000/svg" xmlns:xlink="http://www.w3.org/1999/xlink" x="0px" y="0px"
	 viewBox="0 0 190 128" style="enable-background:new 0 0 190 128;" xml:space="preserve">
<style type="text/css">
	.st0{fill:none;stroke:#316474;stroke-width:1.7;stroke-linecap:round;}
	
		.st1{fill-rule:evenodd;clip-rule:evenodd;fill:#73F793;stroke:#316474;stroke-width:1.992;stroke-linecap:round;stroke-linejoin:round;}
	.st2{fill:#FFFFFF;stroke:#316474;stroke-width:1.7;}
	.st3{fill:none;stroke:#316474;stroke-width:1.992;stroke-linecap:round;stroke-linejoin:round;}
	
		.st4{fill-rule:evenodd;clip-rule:evenodd;fill:none;stroke:#316474;stroke-width:1.992;stroke-linecap:round;stroke-linejoin:round;}
	.st5{fill:#FFFFFF;stroke:#316474;stroke-width:1.992;}
	.st6{fill:#EDE9E3;stroke:#316474;stroke-width:1.992;}
	.st7{fill:#FFFFFF;stroke:#316474;stroke-width:1.992;stroke-linejoin:round;}
	.st8{fill:none;}
	.st9{fill:#FFFFFF;stroke:#316474;stroke-width:1.7;stroke-linecap:round;stroke-linejoin:round;}
	.st10{fill:none;stroke:#316474;stroke-width:1.7;stroke-linecap:round;stroke-linejoin:round;}
	
		.st11{fill-rule:evenodd;clip-rule:evenodd;fill:none;stroke:#316474;stroke-width:1.7;stroke-linecap:round;stroke-linejoin:round;}
	.st12{fill:#C3E3DD;stroke:#316474;stroke-width:1.7;}
	.st13{fill-rule:evenodd;clip-rule:evenodd;fill:#C3E3DD;}
	.st14{fill:#316474;}
	
		.st15{fill-rule:evenodd;clip-rule:evenodd;fill:#73F793;stroke:#316474;stroke-width:1.7;stroke-linecap:round;stroke-linejoin:round;}
	
		.st16{fill-rule:evenodd;clip-rule:evenodd;fill:#FFFFFF;stroke:#316474;stroke-width:1.7;stroke-linecap:round;stroke-linejoin:round;}
	.st17{fill:#40BE9F;}
	.st18{fill:none;stroke:#316474;stroke-width:1.7;}
</style>
<g id="Layer_3">
</g>
<g id="rbs_x5F_1">
	<g>
		<g>
			<path class="st0" d="M176.4,81l9.4,4.4"/>
			<path class="st0" d="M183.4,78.8l-4,9.6"/>
		</g>
		<g>
			<path class="st0" d="M24.8,104.1l2.1,10.2"/>
			<path class="st0" d="M30.8,108.4l-10.1,2.6"/>
		</g>
		<path class="st9" d="M104.2,30.9c-0.3,1.5,1.8,2.1,2.4,0.8v0c0.5-1.2,2.4-4.6,2.7-4.9c0.4-0.6,1-0.7,1.5-0.7
			c0.5,0,4.4,0.5,5.8,0.8c1.5,0.3,2.1-1.7,0.8-2.4c-1.2-0.6-4.8-2.5-5.2-2.8c-0.4-0.3-0.7-0.8-0.7-1.6c0-0.5,0.7-4.7,0.9-6.1
			c0.3-1.5-1.8-2.1-2.4-0.8v0c-0.6,1.2-2.5,5-2.8,5.4c-0.3,0.4-0.8,0.9-1.5,0.8c-0.5,0-4.5-0.5-5.9-0.8c-1.5-0.3-2.1,1.8-0.8,2.4v0
			c1.1,0.5,4.6,2.3,4.9,2.5c0.6,0.4,0.8,1,0.9,1.4C104.9,25.5,104.5,29.5,104.2,30.9"/>
		<path class="st10" d="M150,99.1c1.6,0.1,2.9-1.2,3-2.8v0c0.1-1.6-1.2-2.9-2.8-3c-1.6-0.1-2.9,1.2-3,2.8
			C147.2,97.7,148.4,99,150,99.1z"/>
		<path class="st10" d="M161,13.1c1.6,0.1,2.9-1.2,3-2.8v0c0.1-1.6-1.2-2.9-2.8-3c-1.6-0.1-2.9,1.2-3,2.8
			C158.2,11.7,159.4,13,161,13.1z"/>
		<path class="st11" d="M103.6,81.9c0,1.5-1.2,2.8-2.8,2.8s-2.8-1.2-2.8-2.8c0-1.5,1.2-2.8,2.8-2.8S103.6,80.4,103.6,81.9z"/>
	</g>
	<path class="st12" d="M26.1,51.8l0.4-1.8l1.1,1.6l18.1,26.1c0,0,0,0,0,0c2.5,3.6,6.5,9.7,10.1,16.3c3.7,6.6,7.1,13.8,8.5,19.6l0,0
		l0,0c0.1,0.4,0.1,0.9,0.1,1.3c0,0.5-0.1,1-0.3,1.5c-0.2,0.5-0.6,1-1.2,1.2c-0.6,0.2-1.3,0.1-2-0.2c-1.7-0.8-3.1-2.4-4-4
		c-0.9-1.7-1.6-3.5-1.7-4.9c-0.1-1.1-1-5.4-2.7-9.8c-0.9-2.2-1.9-4.4-3.2-6.2c-1.3-1.8-2.7-3.2-4.3-4c-2-0.9-2.8-1.2-3.8-1.4
		c-0.8-0.1-1.6-0.5-2.1-1.3L23.8,62.4l-0.2-0.3l0.1-0.4L26.1,51.8z"/>
	<g>
		<path class="st13" d="M118.8,119.8c-0.3,0-0.7-0.1-1-0.2c-1.8-0.8-1-2.9-0.7-3.8c8.4-22.8,3.2-27.1,1.5-27.9
			c-0.7-0.3-1.3-0.8-1.6-1.4l-14.6-27.3c-0.2-0.5-0.8-0.7-1.2-0.8c-0.6-0.2-1.1-0.3-1.5-0.3c-0.4,0-0.7,0.1-0.8,0.2
			c-0.1,0.1-0.2,0.3-0.3,0.5c-0.3,0.6-0.7,1.7-1.2,2.8c-1.6,4.4-4,11.1-9.6,12c-2.4,0.4-5,0.6-7.4,0.6c0,0,0,0,0,0
			c-5.3,0-12.4-1-16.4-5.6c-3.3-3.9-4.2-8.5-4.9-11.9c-0.3-1.7-0.6-3.1-1-3.7c-0.1-0.1-0.2-0.2-0.3-0.2c-0.3,0-0.8,0.3-1.2,1.1
			C53,61.3,47.9,70,40.2,72.5c-3.9,1.3-6.9,1.9-9.4,1.9c-2.6,0-4.6-0.7-6.2-2c-2.6-2.2-2.8-5.8-2.5-7.6l0.2-6.6l-1-1.9
			c-0.2-0.4-0.3-0.8-0.1-1.3l1.1-4.7c0.1-0.5,0.4-0.9,0.8-1.1c0.8-0.5,8.4-5.1,18.3-5.1c0.5,0,1,0,1.5,0c5.6,0.3,8,0.9,9.8,1.3
			c1.2,0.3,2.1,0.5,3.5,0.5c0.6,0,1.3,0,2.2-0.1c5.2-0.5,5.2-0.5,9.5-1.8c0.7-0.2,1.5-0.4,2.4-0.7c3-0.9,6.8-1.3,10.9-1.3
			c5,0,13,0.7,22.2,4c0.5,0.2,1,0.6,1.4,0.9c0.1,0.1,0.2,0.2,0.3,0.2c0.1,0.1,0.3,0.2,0.4,0.4c3.2,3.8,10.1,13.2,15.7,23.7
			c8.2,15.5,5.1,29.5,0.1,46.2C120.6,119,119.8,119.8,118.8,119.8z"/>
		<path class="st14" d="M81.1,42.9c6.3,0,13.9,1.1,21.9,4c0.5,0.2,1,0.6,1.4,1c0.1,0.1,0.2,0.2,0.3,0.2c3.6,4.1,10.2,13.5,15.6,23.6
			c8.1,15.2,5.1,28.7,0.1,45.6c-0.2,0.8-0.6,1.7-1.5,1.7c-0.2,0-0.4-0.1-0.7-0.2c-1.1-0.5-0.6-1.9-0.2-2.7l0-0.1
			c2.8-7.7,8.5-25.6,1-28.9c-0.5-0.2-1-0.6-1.2-1l-14.6-27.3c-0.3-0.7-1-1-1.8-1.2c-0.5-0.1-1.1-0.3-1.7-0.3c-0.6,0-1.2,0.2-1.5,0.6
			c-0.1,0.2-0.2,0.3-0.3,0.5c-0.4,0.6-0.8,1.7-1.2,3c-1.5,4.2-3.9,10.6-8.9,11.5c-2.2,0.4-4.7,0.6-7.3,0.6c-6,0-12.3-1.3-15.7-5.3
			c-3.2-3.7-4-8.2-4.7-11.5c-0.3-1.8-0.6-3.3-1.2-4.1c-0.2-0.3-0.6-0.5-1-0.5c-0.6,0-1.4,0.5-2,1.6c-2.8,5.7-8,15.6-15.9,18.2
			c-3.7,1.2-6.7,1.9-9.1,1.9c-2.4,0-4.2-0.6-5.7-1.8c-2.4-2-2.5-5.3-2.3-6.8c0,0,0-0.1,0-0.1l0.2-6.6c0-0.2,0-0.3-0.1-0.5L22,55.9
			c-0.1-0.2-0.1-0.5-0.1-0.7l1.1-4.7c0.1-0.2,0.2-0.5,0.4-0.6c2.9-1.8,9.9-5,17.8-5c0.5,0,1,0,1.5,0c5.5,0.3,7.9,0.9,9.6,1.3
			c1.2,0.3,2.2,0.5,3.7,0.5c0.6,0,1.4,0,2.3-0.1c5.3-0.5,5.4-0.5,9.6-1.8c0.7-0.2,1.5-0.4,2.4-0.7C73.2,43.4,76.8,42.9,81.1,42.9
			 M81.1,41.2l0,1.7L81.1,41.2c-4.2,0-8,0.5-11.1,1.4c-0.9,0.3-1.7,0.5-2.4,0.7c-4.2,1.2-4.2,1.2-9.3,1.7c-0.8,0.1-1.5,0.1-2.1,0.1
			c-1.3,0-2.1-0.2-3.3-0.5c-1.8-0.4-4.2-1-9.9-1.3c-0.5,0-1.1,0-1.6,0c-7.7,0-14.9,2.8-18.7,5.3c-0.6,0.4-1,0.9-1.2,1.6l-1.1,4.7
			c-0.2,0.6-0.1,1.3,0.2,1.9l0.9,1.7l-0.2,6.4c-0.3,2,0,5.9,2.8,8.3c1.8,1.5,4,2.2,6.8,2.2c2.6,0,5.6-0.6,9.7-1.9
			c8-2.6,13.2-11.6,16.9-19c0.1-0.2,0.2-0.3,0.3-0.4c0.3,0.7,0.5,1.8,0.7,3c0.7,3.5,1.6,8.3,5.1,12.3c4.2,4.9,11.6,5.9,17,5.9
			c2.5,0,5.1-0.2,7.6-0.6c6-1,8.7-8.3,10.2-12.6c0.4-1.1,0.8-2.2,1.1-2.7c0.1-0.1,0.1-0.2,0.2-0.3c0,0,0.1,0,0.1,0
			c0.3,0,0.7,0.1,1.2,0.2c0.4,0.1,0.7,0.3,0.7,0.4l14.6,27.3c0.4,0.8,1.1,1.4,2,1.8c4.3,1.9,3.5,12.2-1.9,26.8l0,0.1
			c-0.9,2.4-0.5,4.1,1.1,4.8c0.5,0.2,0.9,0.3,1.4,0.3c1,0,2.4-0.5,3.1-3c5-16.9,8.2-31-0.2-46.9c-5-9.5-11.7-19.2-15.8-23.9
			c-0.2-0.2-0.3-0.3-0.5-0.5c-0.1-0.1-0.2-0.1-0.2-0.2c-0.4-0.3-0.9-0.8-1.6-1C94.2,41.9,86.2,41.2,81.1,41.2L81.1,41.2z"/>
	</g>
	<ellipse transform="matrix(0.8876 -0.4607 0.4607 0.8876 -11.8982 51.6032)" class="st14" cx="99.8" cy="50.2" rx="3" ry="2.6"/>
	<ellipse transform="matrix(0.8876 -0.4607 0.4607 0.8876 -20.9101 17.1411)" class="st14" cx="24.7" cy="51.4" rx="2.8" ry="2.3"/>
	<g>
		<path class="st9" d="M116.3,74c-0.1,0.3,0,0.6,0.1,0.8c0.2,0.2,0.5,0.4,0.7,0.3l13.7-1.2c3.6,2.5,7.8,4.1,12.2,4.6
			c0,0,0.2,0,0.2,0c15,1.8,28.7-9,30.5-24.1l0,0c0.9-7.3-1.1-14.6-5.6-20.4c-4.5-5.8-11.1-9.5-18.4-10.4h0
			c-15.1-1.8-28.8,9-30.7,24.1c-0.6,4.6,0,9.3,1.7,13.6L116.3,74z"/>
		<path class="st15" d="M126.9,62l-1-2.2c-1.5-3.6-2.1-7.5-1.6-11.3c1.5-12.1,12.5-20.7,24.6-19.3c2.4,0.3,4.7,0.9,6.8,1.9
			c3.1,1.5,5.8,3.6,7.9,6.4c3.6,4.6,5.2,10.4,4.5,16.3c-1.5,12.1-12.5,20.7-24.6,19.3c-2.4-0.3-4.6-0.9-6.8-1.9
			c-1.2-0.6-2.3-1.2-3.4-2l-1.8-1.2l-7.6,1.1L126.9,62z"/>
		<path class="st16" d="M158.7,57.9c0.2,0.1,0.3,0.3,0.4,0.5c0.3,0.7,0,2.2-0.7,3.6c-0.8,1.5-3.5,2.9-5.3,2.9
			c-1.5,0-2.9-0.2-4.3-0.8c-1.3-0.6-2.3-1.1-3.5-1.8c-2-1.1-3.8-2.7-5.4-4.6c-1.2-1.4-2.3-2.8-3.2-4.3c-0.3-0.5-1.9-3.3-2.2-4.1
			c-0.7-1.6-1.1-3.2-1-4.8c0-0.2,0-0.4,0-0.6c0.2-1.7,0.8-3,1.7-4.1c0.3-0.3,1.4-1.4,1.4-1.4c0.7-0.6,1.6-0.9,2.4-0.8
			c0.5,0.1,1.8,0.3,2.1,0.4c0.5,0.3,0.8,0.8,1.1,1.6c0.1,0.2,1.3,4.7,1.4,4.8c0.2,0.6,0.2,1.2-0.2,1.8c0,0-0.2,0.3-0.3,0.4
			c-0.1,0.1-1.6,1.6-1.8,1.8c-0.3,0.2-0.2,0.2-0.2,0.3c0.6,1.5,1.6,3.1,2.8,4.6c0.9,1,1.8,1.8,2.8,2.5c0.5,0.4,1.8,1.1,1.7,1.1
			c0.3,0.2,0.3,0.2,0.4,0.1c0.8-0.7,1.9-1.7,2.2-2.1c0.7-0.8,1.4-0.8,2.4-0.3C153.9,54.8,158.5,57.8,158.7,57.9z"/>
	</g>
	<g>
		<g>
			<path class="st17" d="M92.3,48.9c-0.6-0.4-1.4-0.8-2.4-1.1c-2-0.6-4.6-0.9-7.5-0.9c-2.3,0-4.6,0.1-6.8,0.3L87,68.3
				c0.4-0.2,0.8-0.4,1.1-0.6c0.9-0.7,1.5-1.5,2.1-2.9c2.1-4.9,3.1-8.3,3.4-10.6C93.9,51.8,93.8,49.9,92.3,48.9z"/>
			<path class="st14" d="M75.7,47.2c-0.5,0-0.9,0.1-1.4,0.2c-2.5,0.3-4.5,0.8-5.6,1.3c-1.5,0.7-2.4,2.4-2.9,4.6
				c-0.5,2.2-0.4,4.5-0.3,6l0,0l0,0c0.1,1.4,0.3,3.3,1,5c0.7,1.7,1.9,3.1,3.6,3.7c2.7,0.9,5.2,1.1,7.6,1.3c1.7,0.1,3.3,0.2,5.6-0.1
				c1.6-0.2,2.8-0.5,3.6-0.9L75.7,47.2z"/>
		</g>
		<path class="st18" d="M93.4,50.4c0,0-0.3-0.9-1.1-1.5c-0.6-0.4-1.4-0.8-2.4-1.1c-2-0.6-4.6-0.9-7.5-0.9c-2.8,0-5.7,0.1-8.2,0.5
			c-2.5,0.3-4.5,0.8-5.6,1.3c-1.5,0.7-2.4,2.4-2.9,4.6c-0.5,2.2-0.4,4.5-0.3,6l0,0l0,0c0.1,1.4,0.3,3.3,1,5c0.7,1.7,1.9,3.1,3.6,3.7
			c2.7,0.9,5.2,1.1,7.6,1.3c1.7,0.1,3.3,0.2,5.6-0.1c2.4-0.3,3.8-0.8,4.8-1.5c0.9-0.7,1.5-1.5,2.1-2.9c2.1-4.9,3.1-8.3,3.4-10.6
			C93.9,51.8,93.5,50.8,93.4,50.4z"/>
	</g>
	<g>
		<g>
			<path class="st17" d="M48.3,49.6L48.3,49.6L48.3,49.6c-4.6-1.6-9.6-1.8-13.5-0.5l8.4,15.9c0.6-0.7,1.2-1.4,1.7-2.3
				c1.6-2.4,3-5.2,4.2-7.7c0-0.1,0.1-0.2,0.1-0.3c0.9-1.9,0.8-3.1,0.5-3.9C49.4,50.2,48.7,49.7,48.3,49.6z"/>
			<path class="st14" d="M43.2,65.1l-8.4-15.9c-1.4,0.5-2.6,1.1-3.6,2c-0.9,0.7-1.7,2.1-2.4,4c-0.7,1.8-1.2,4-1.6,6.1
				c-0.3,2.1-0.5,4.1-0.4,5.7c0,0.8,0.1,1.4,0.2,1.9c0.1,0.4,0.2,0.6,0.3,0.6c0,0,0,0,0,0c0.4,0.2,0.9,0.4,1.8,0.5
				c0.8,0.1,1.8,0.1,2.9,0c2.2-0.2,4.8-0.8,7.2-1.7C40.6,67.5,42,66.5,43.2,65.1z"/>
		</g>
		<path class="st18" d="M48.3,49.6L48.3,49.6L48.3,49.6C42,47.5,35,47.9,31.2,51.1c-0.9,0.7-1.7,2.1-2.4,4c-0.7,1.8-1.2,4-1.6,6.1
			c-0.3,2.1-0.5,4.1-0.4,5.7c0,0.8,0.1,1.4,0.2,1.9c0.1,0.4,0.2,0.6,0.3,0.6c0,0,0,0,0,0c0.4,0.2,0.9,0.4,1.8,0.5
			c0.8,0.1,1.8,0.1,2.9,0c2.2-0.2,4.8-0.8,7.2-1.7c2.2-0.8,4.1-2.8,5.8-5.3c1.6-2.4,3-5.2,4.2-7.7c0-0.1,0.1-0.2,0.1-0.3
			c0.9-1.9,0.8-3.1,0.5-3.9C49.4,50.2,48.7,49.7,48.3,49.6z"/>
	</g>
	<rect id="Bounds_00000163038971148001285260000016781869493302427299_" class="st8" width="190" height="128"/>
</g>
</svg>
